ffmpeg started on 2025-06-06 at 18:46:10
Report written to "D:\Convert\FFMetrics\reports\ssim_report-6.txt"
Log level: 32
Command line:
ffmpeg -hide_banner -nostdin -i "G:\\\xc0\xed\xe8\xec\xe5\\\xce\xed\xe3\xee\xe8\xed\xe3\xe8\\!_36_\xce\xf1\xe5\xed\xfc_2024\\DreamCast\\\xcf\xf3\xed\xe8\xf0\xf3 - \xec\xe8\xeb\xe0\xff \xf1\xeb\xe8\xe7\xfc\\[DC] Puniru wa Kawaii Slime - 04_Telegram_HEVC.mkv" -i "G:\\\xc0\xed\xe8\xec\xe5\\\xce\xed\xe3\xee\xe8\xed\xe3\xe8\\!_36_\xce\xf1\xe5\xed\xfc_2024\\DreamCast\\\xcf\xf3\xed\xe8\xf0\xf3 - \xec\xe8\xeb\xe0\xff \xf1\xeb\xe8\xe7\xfc\\[DC] Puniru wa Kawaii Slime - 04_Telegram.mp4" -lavfi "[0:v]settb=AVTB,setpts=PTS-STARTPTS,format=pix_fmts=yuv420p10,fps=24000/1001,scale=1920:1080:flags=bicubic[main];[1:v]settb=AVTB,setpts=PTS-STARTPTS,format=pix_fmts=yuv420p,fps=24000/1001,scale=1920:1080:flags=bicubic[ref];[main][ref]ssim=eof_action=endall:stats_file='D\\:/Convert/FFMetrics/logs/ssim_logfile-6.txt'" -f null -
Input #0, matroska,webm, from 'G:\Аниме\Онгоинги\!_36_Осень_2024\DreamCast\Пуниру - милая слизь\[DC] Puniru wa Kawaii Slime - 04_Telegram_HEVC.mkv':
  Metadata:
    COMPATIBLE_BRANDS: isomiso2avc1mp41
    MAJOR_BRAND     : isom
    MINOR_VERSION   : 512
    ENCODER         : Lavf61.7.100
  Duration: 00:23:56.52, start: -0.021000, bitrate: 1303 kb/s
  Stream #0:0: Video: hevc (Main 10), yuv420p10le(tv, bt709, progressive), 1920x1080 [SAR 1:1 DAR 16:9], 23.98 fps, 23.98 tbr, 1k tbn (default)
      Metadata:
        HANDLER_NAME    : VideoHandler
        VENDOR_ID       : [0][0][0][0]
        ENCODER         : Lavc61.19.100 libx265
        BPS             : 1105833
        DURATION        : 00:23:56.518708333
        NUMBER_OF_FRAMES: 34442
        NUMBER_OF_BYTES : 198568734
        _STATISTICS_WRITING_APP: mkvpropedit v66.0.0 ('Josie') 64-bit
        _STATISTICS_WRITING_DATE_UTC: 2025-06-03 12:19:46
        _STATISTICS_TAGS: BPS DURATION NUMBER_OF_FRAMES NUMBER_OF_BYTES
  Stream #0:1: Audio: aac (LC), 48000 Hz, stereo, fltp (default)
      Metadata:
        HANDLER_NAME    : SoundHandler
        VENDOR_ID       : [0][0][0][0]
        ENCODER         : Lavc61.19.100 aac
        BPS             : 193745
        DURATION        : 00:23:56.245000000
        NUMBER_OF_FRAMES: 67325
        NUMBER_OF_BYTES : 34783162
        _STATISTICS_WRITING_APP: mkvpropedit v66.0.0 ('Josie') 64-bit
        _STATISTICS_WRITING_DATE_UTC: 2025-06-03 12:19:46
        _STATISTICS_TAGS: BPS DURATION NUMBER_OF_FRAMES NUMBER_OF_BYTES
Input #1, mov,mp4,m4a,3gp,3g2,mj2, from 'G:\Аниме\Онгоинги\!_36_Осень_2024\DreamCast\Пуниру - милая слизь\[DC] Puniru wa Kawaii Slime - 04_Telegram.mp4':
  Metadata:
    major_brand     : isom
    minor_version   : 512
    compatible_brands: isomiso2avc1mp41
    encoder         : Lavf61.1.100
  Duration: 00:23:56.52, start: 0.000000, bitrate: 3708 kb/s
  Stream #1:0[0x1](und): Video: h264 (High) (avc1 / 0x31637661), yuv420p(tv, bt709, progressive), 1920x1080 [SAR 1:1 DAR 16:9], 3561 kb/s, 23.98 fps, 23.98 tbr, 24k tbn (default)
      Metadata:
        handler_name    : VideoHandler
        vendor_id       : [0][0][0][0]
        encoder         : Lavc61.3.100 h264_qsv
  Stream #1:1[0x2](und): Audio: aac (HE-AACv2) (mp4a / 0x6134706D), 48000 Hz, stereo, fltp, 144 kb/s (default)
      Metadata:
        handler_name    : SoundHandler
        vendor_id       : [0][0][0][0]
Stream mapping:
  Stream #0:0 (hevc) -> settb:default
  Stream #1:0 (h264) -> settb:default
  ssim:default -> Stream #0:0 (wrapped_avframe)
  Stream #0:1 -> #0:1 (aac (native) -> pcm_s16le (native))
Output #0, null, to 'pipe:':
  Metadata:
    COMPATIBLE_BRANDS: isomiso2avc1mp41
    MAJOR_BRAND     : isom
    MINOR_VERSION   : 512
    encoder         : Lavf61.7.100
  Stream #0:0: Video: wrapped_avframe, yuv420p10le(tv, bt709, progressive), 1920x1080 [SAR 1:1 DAR 16:9], q=2-31, 200 kb/s, 23.98 fps, 23.98 tbn
      Metadata:
        encoder         : Lavc61.19.100 wrapped_avframe
  Stream #0:1: Audio: pcm_s16le, 48000 Hz, stereo, s16, 1536 kb/s (default)
      Metadata:
        HANDLER_NAME    : SoundHandler
        VENDOR_ID       : [0][0][0][0]
        _STATISTICS_TAGS: BPS DURATION NUMBER_OF_FRAMES NUMBER_OF_BYTES
        BPS             : 193745
        DURATION        : 00:23:56.245000000
        NUMBER_OF_FRAMES: 67325
        NUMBER_OF_BYTES : 34783162
        _STATISTICS_WRITING_APP: mkvpropedit v66.0.0 ('Josie') 64-bit
        _STATISTICS_WRITING_DATE_UTC: 2025-06-03 12:19:46
        encoder         : Lavc61.19.100 pcm_s16le
frame=  170 fps=0.0 q=-0.0 size=N/A time=00:00:07.09 bitrate=N/A speed=13.8x    frame=  386 fps=371 q=-0.0 size=N/A time=00:00:16.09 bitrate=N/A speed=15.5x    frame=  559 fps=360 q=-0.0 size=N/A time=00:00:23.31 bitrate=N/A speed=  15x    frame=  755 fps=365 q=-0.0 size=N/A time=00:00:31.48 bitrate=N/A speed=15.2x    frame=  969 fps=376 q=-0.0 size=N/A time=00:00:40.41 bitrate=N/A speed=15.7x    frame= 1205 fps=389 q=-0.0 size=N/A time=00:00:50.25 bitrate=N/A speed=16.2x    frame= 1404 fps=389 q=-0.0 size=N/A time=00:00:58.55 bitrate=N/A speed=16.2x    frame= 1553 fps=376 q=-0.0 size=N/A time=00:01:04.77 bitrate=N/A speed=15.7x    frame= 1728 fps=373 q=-0.0 size=N/A time=00:01:12.07 bitrate=N/A speed=15.5x    frame= 1925 fps=373 q=-0.0 size=N/A time=00:01:20.28 bitrate=N/A speed=15.6x    frame= 2133 fps=376 q=-0.0 size=N/A time=00:01:28.96 bitrate=N/A speed=15.7x    frame= 2375 fps=384 q=-0.0 size=N/A time=00:01:39.05 bitrate=N/A speed=  16x    frame= 2643 fps=394 q=-0.0 size=N/A time=00:01:50.23 bitrate=N/A speed=16.4x    frame= 2906 fps=402 q=-0.0 size=N/A time=00:02:01.20 bitrate=N/A speed=16.8x    frame= 3168 fps=410 q=-0.0 size=N/A time=00:02:12.13 bitrate=N/A speed=17.1x    frame= 3437 fps=416 q=-0.0 size=N/A time=00:02:23.35 bitrate=N/A speed=17.4x    frame= 3709 fps=423 q=-0.0 size=N/A time=00:02:34.69 bitrate=N/A speed=17.6x    frame= 3953 fps=425 q=-0.0 size=N/A time=00:02:44.87 bitrate=N/A speed=17.7x    frame= 4197 fps=428 q=-0.0 size=N/A time=00:02:55.04 bitrate=N/A speed=17.9x    frame= 4457 fps=432 q=-0.0 size=N/A time=00:03:05.89 bitrate=N/A speed=  18x    frame= 4730 fps=437 q=-0.0 size=N/A time=00:03:17.28 bitrate=N/A speed=18.2x    frame= 5009 fps=442 q=-0.0 size=N/A time=00:03:28.91 bitrate=N/A speed=18.4x    frame= 5240 fps=442 q=-0.0 size=N/A time=00:03:38.55 bitrate=N/A speed=18.4x    frame= 5457 fps=441 q=-0.0 size=N/A time=00:03:47.60 bitrate=N/A speed=18.4x    frame= 5586 fps=433 q=-0.0 size=N/A time=00:03:52.98 bitrate=N/A speed=18.1x    frame= 5851 fps=437 q=-0.0 size=N/A time=00:04:04.03 bitrate=N/A speed=18.2x    frame= 6112 fps=439 q=-0.0 size=N/A time=00:04:14.92 bitrate=N/A speed=18.3x    frame= 6368 fps=441 q=-0.0 size=N/A time=00:04:25.59 bitrate=N/A speed=18.4x    frame= 6645 fps=444 q=-0.0 size=N/A time=00:04:37.15 bitrate=N/A speed=18.5x    frame= 6919 fps=447 q=-0.0 size=N/A time=00:04:48.57 bitrate=N/A speed=18.6x    frame= 7163 fps=448 q=-0.0 size=N/A time=00:04:58.75 bitrate=N/A speed=18.7x    frame= 7432 fps=450 q=-0.0 size=N/A time=00:05:09.97 bitrate=N/A speed=18.8x    frame= 7694 fps=452 q=-0.0 size=N/A time=00:05:20.90 bitrate=N/A speed=18.9x    frame= 7968 fps=454 q=-0.0 size=N/A time=00:05:32.33 bitrate=N/A speed=  19x    frame= 8202 fps=455 q=-0.0 size=N/A time=00:05:42.09 bitrate=N/A speed=  19x    frame= 8447 fps=455 q=-0.0 size=N/A time=00:05:52.31 bitrate=N/A speed=  19x    frame= 8731 fps=458 q=-0.0 size=N/A time=00:06:04.15 bitrate=N/A speed=19.1x    frame= 8975 fps=458 q=-0.0 size=N/A time=00:06:14.33 bitrate=N/A speed=19.1x    frame= 9189 fps=457 q=-0.0 size=N/A time=00:06:23.25 bitrate=N/A speed=19.1x    frame= 9415 fps=457 q=-0.0 size=N/A time=00:06:32.68 bitrate=N/A speed=  19x    frame= 9637 fps=456 q=-0.0 size=N/A time=00:06:41.94 bitrate=N/A speed=  19x    frame= 9865 fps=456 q=-0.0 size=N/A time=00:06:51.45 bitrate=N/A speed=  19x    frame=10102 fps=456 q=-0.0 size=N/A time=00:07:01.33 bitrate=N/A speed=  19x    frame=10348 fps=456 q=-0.0 size=N/A time=00:07:11.59 bitrate=N/A speed=  19x    frame=10604 fps=457 q=-0.0 size=N/A time=00:07:22.27 bitrate=N/A speed=19.1x    frame=10854 fps=457 q=-0.0 size=N/A time=00:07:32.70 bitrate=N/A speed=19.1x    frame=11083 fps=457 q=-0.0 size=N/A time=00:07:42.25 bitrate=N/A speed=19.1x    frame=11355 fps=459 q=-0.0 size=N/A time=00:07:53.59 bitrate=N/A speed=19.1x    frame=11645 fps=461 q=-0.0 size=N/A time=00:08:05.69 bitrate=N/A speed=19.2x    frame=11908 fps=461 q=-0.0 size=N/A time=00:08:16.66 bitrate=N/A speed=19.2x    frame=12173 fps=462 q=-0.0 size=N/A time=00:08:27.71 bitrate=N/A speed=19.3x    frame=12424 fps=463 q=-0.0 size=N/A time=00:08:38.18 bitrate=N/A speed=19.3x    frame=12639 fps=462 q=-0.0 size=N/A time=00:08:47.15 bitrate=N/A speed=19.3x    frame=12778 fps=458 q=-0.0 size=N/A time=00:08:52.94 bitrate=N/A speed=19.1x    frame=13019 fps=459 q=-0.0 size=N/A time=00:09:03.00 bitrate=N/A speed=19.1x    frame=13250 fps=458 q=-0.0 size=N/A time=00:09:12.63 bitrate=N/A speed=19.1x    frame=13500 fps=459 q=-0.0 size=N/A time=00:09:23.06 bitrate=N/A speed=19.1x    frame=13792 fps=461 q=-0.0 size=N/A time=00:09:35.24 bitrate=N/A speed=19.2x    frame=14072 fps=462 q=-0.0 size=N/A time=00:09:46.91 bitrate=N/A speed=19.3x    frame=14317 fps=462 q=-0.0 size=N/A time=00:09:57.13 bitrate=N/A speed=19.3x    frame=14524 fps=461 q=-0.0 size=N/A time=00:10:05.77 bitrate=N/A speed=19.2x    frame=14749 fps=461 q=-0.0 size=N/A time=00:10:15.15 bitrate=N/A speed=19.2x    frame=14969 fps=460 q=-0.0 size=N/A time=00:10:24.33 bitrate=N/A speed=19.2x    frame=15231 fps=461 q=-0.0 size=N/A time=00:10:35.25 bitrate=N/A speed=19.2x    frame=15466 fps=461 q=-0.0 size=N/A time=00:10:45.06 bitrate=N/A speed=19.2x    frame=15693 fps=461 q=-0.0 size=N/A time=00:10:54.52 bitrate=N/A speed=19.2x    frame=15956 fps=461 q=-0.0 size=N/A time=00:11:05.49 bitrate=N/A speed=19.2x    frame=16214 fps=462 q=-0.0 size=N/A time=00:11:16.25 bitrate=N/A speed=19.3x    frame=16468 fps=462 q=-0.0 size=N/A time=00:11:26.85 bitrate=N/A speed=19.3x    frame=16710 fps=463 q=-0.0 size=N/A time=00:11:36.94 bitrate=N/A speed=19.3x    frame=16964 fps=463 q=-0.0 size=N/A time=00:11:47.54 bitrate=N/A speed=19.3x    frame=17217 fps=463 q=-0.0 size=N/A time=00:11:58.09 bitrate=N/A speed=19.3x    frame=17473 fps=464 q=-0.0 size=N/A time=00:12:08.76 bitrate=N/A speed=19.3x    frame=17752 fps=465 q=-0.0 size=N/A time=00:12:20.40 bitrate=N/A speed=19.4x    frame=17991 fps=465 q=-0.0 size=N/A time=00:12:30.37 bitrate=N/A speed=19.4x    frame=18250 fps=465 q=-0.0 size=N/A time=00:12:41.17 bitrate=N/A speed=19.4x    frame=18504 fps=466 q=-0.0 size=N/A time=00:12:51.77 bitrate=N/A speed=19.4x    frame=18761 fps=466 q=-0.0 size=N/A time=00:13:02.49 bitrate=N/A speed=19.4x    frame=18980 fps=465 q=-0.0 size=N/A time=00:13:11.62 bitrate=N/A speed=19.4x    frame=19247 fps=466 q=-0.0 size=N/A time=00:13:22.76 bitrate=N/A speed=19.4x    frame=19514 fps=467 q=-0.0 size=N/A time=00:13:33.89 bitrate=N/A speed=19.5x    frame=19770 fps=467 q=-0.0 size=N/A time=00:13:44.57 bitrate=N/A speed=19.5x    frame=20023 fps=467 q=-0.0 size=N/A time=00:13:55.12 bitrate=N/A speed=19.5x    frame=20255 fps=467 q=-0.0 size=N/A time=00:14:04.80 bitrate=N/A speed=19.5x    frame=20490 fps=467 q=-0.0 size=N/A time=00:14:14.60 bitrate=N/A speed=19.5x    frame=20726 fps=467 q=-0.0 size=N/A time=00:14:24.44 bitrate=N/A speed=19.5x    frame=20978 fps=467 q=-0.0 size=N/A time=00:14:34.95 bitrate=N/A speed=19.5x    frame=21233 fps=468 q=-0.0 size=N/A time=00:14:45.59 bitrate=N/A speed=19.5x    frame=21490 fps=468 q=-0.0 size=N/A time=00:14:56.31 bitrate=N/A speed=19.5x    frame=21762 fps=469 q=-0.0 size=N/A time=00:15:07.65 bitrate=N/A speed=19.5x    frame=22055 fps=470 q=-0.0 size=N/A time=00:15:19.87 bitrate=N/A speed=19.6x    frame=22300 fps=470 q=-0.0 size=N/A time=00:15:30.09 bitrate=N/A speed=19.6x    frame=22554 fps=470 q=-0.0 size=N/A time=00:15:40.68 bitrate=N/A speed=19.6x    frame=22779 fps=470 q=-0.0 size=N/A time=00:15:50.07 bitrate=N/A speed=19.6x    frame=23006 fps=469 q=-0.0 size=N/A time=00:15:59.54 bitrate=N/A speed=19.6x    frame=23227 fps=469 q=-0.0 size=N/A time=00:16:08.75 bitrate=N/A speed=19.6x    frame=23478 fps=469 q=-0.0 size=N/A time=00:16:19.22 bitrate=N/A speed=19.6x    frame=23666 fps=468 q=-0.0 size=N/A time=00:16:27.06 bitrate=N/A speed=19.5x    frame=23918 fps=468 q=-0.0 size=N/A time=00:16:37.57 bitrate=N/A speed=19.5x    frame=24168 fps=468 q=-0.0 size=N/A time=00:16:48.00 bitrate=N/A speed=19.5x    frame=24420 fps=468 q=-0.0 size=N/A time=00:16:58.51 bitrate=N/A speed=19.5x    frame=24680 fps=469 q=-0.0 size=N/A time=00:17:09.36 bitrate=N/A speed=19.6x    frame=24959 fps=469 q=-0.0 size=N/A time=00:17:20.99 bitrate=N/A speed=19.6x    frame=25213 fps=470 q=-0.0 size=N/A time=00:17:31.59 bitrate=N/A speed=19.6x    frame=25472 fps=470 q=-0.0 size=N/A time=00:17:42.39 bitrate=N/A speed=19.6x    frame=25758 fps=471 q=-0.0 size=N/A time=00:17:54.32 bitrate=N/A speed=19.6x    frame=26026 fps=471 q=-0.0 size=N/A time=00:18:05.50 bitrate=N/A speed=19.7x    frame=26288 fps=472 q=-0.0 size=N/A time=00:18:16.42 bitrate=N/A speed=19.7x    frame=26558 fps=472 q=-0.0 size=N/A time=00:18:27.68 bitrate=N/A speed=19.7x    frame=26845 fps=473 q=-0.0 size=N/A time=00:18:39.66 bitrate=N/A speed=19.7x    frame=27113 fps=473 q=-0.0 size=N/A time=00:18:50.83 bitrate=N/A speed=19.7x    frame=27395 fps=474 q=-0.0 size=N/A time=00:19:02.59 bitrate=N/A speed=19.8x    frame=27652 fps=474 q=-0.0 size=N/A time=00:19:13.31 bitrate=N/A speed=19.8x    frame=27923 fps=474 q=-0.0 size=N/A time=00:19:24.62 bitrate=N/A speed=19.8x    frame=28197 fps=475 q=-0.0 size=N/A time=00:19:36.04 bitrate=N/A speed=19.8x    frame=28492 fps=476 q=-0.0 size=N/A time=00:19:48.35 bitrate=N/A speed=19.8x    frame=28765 fps=476 q=-0.0 size=N/A time=00:19:59.74 bitrate=N/A speed=19.9x    frame=29035 fps=477 q=-0.0 size=N/A time=00:20:11.00 bitrate=N/A speed=19.9x    frame=29287 fps=477 q=-0.0 size=N/A time=00:20:21.51 bitrate=N/A speed=19.9x    frame=29548 fps=477 q=-0.0 size=N/A time=00:20:32.39 bitrate=N/A speed=19.9x    frame=29799 fps=477 q=-0.0 size=N/A time=00:20:42.86 bitrate=N/A speed=19.9x    frame=30043 fps=477 q=-0.0 size=N/A time=00:20:53.04 bitrate=N/A speed=19.9x    frame=30322 fps=477 q=-0.0 size=N/A time=00:21:04.68 bitrate=N/A speed=19.9x    frame=30594 fps=478 q=-0.0 size=N/A time=00:21:16.02 bitrate=N/A speed=19.9x    frame=30833 fps=478 q=-0.0 size=N/A time=00:21:25.99 bitrate=N/A speed=19.9x    frame=31037 fps=477 q=-0.0 size=N/A time=00:21:34.50 bitrate=N/A speed=19.9x    frame=31264 fps=477 q=-0.0 size=N/A time=00:21:43.96 bitrate=N/A speed=19.9x    frame=31427 fps=475 q=-0.0 size=N/A time=00:21:50.76 bitrate=N/A speed=19.8x    frame=31642 fps=475 q=-0.0 size=N/A time=00:21:59.73 bitrate=N/A speed=19.8x    frame=31883 fps=475 q=-0.0 size=N/A time=00:22:09.78 bitrate=N/A speed=19.8x    frame=32111 fps=475 q=-0.0 size=N/A time=00:22:19.29 bitrate=N/A speed=19.8x    frame=32310 fps=474 q=-0.0 size=N/A time=00:22:27.59 bitrate=N/A speed=19.8x    frame=32548 fps=474 q=-0.0 size=N/A time=00:22:37.52 bitrate=N/A speed=19.8x    frame=32745 fps=473 q=-0.0 size=N/A time=00:22:45.73 bitrate=N/A speed=19.7x    frame=32954 fps=473 q=-0.0 size=N/A time=00:22:54.45 bitrate=N/A speed=19.7x    frame=33189 fps=473 q=-0.0 size=N/A time=00:23:04.25 bitrate=N/A speed=19.7x    frame=33412 fps=472 q=-0.0 size=N/A time=00:23:13.55 bitrate=N/A speed=19.7x    frame=33590 fps=471 q=-0.0 size=N/A time=00:23:20.98 bitrate=N/A speed=19.7x    frame=33754 fps=470 q=-0.0 size=N/A time=00:23:27.82 bitrate=N/A speed=19.6x    frame=33943 fps=470 q=-0.0 size=N/A time=00:23:35.70 bitrate=N/A speed=19.6x    frame=34168 fps=469 q=-0.0 size=N/A time=00:23:45.09 bitrate=N/A speed=19.6x    frame=34399 fps=469 q=-0.0 size=N/A time=00:23:54.72 bitrate=N/A speed=19.6x    [Parsed_ssim_10 @ 000001ab6933a9c0] SSIM Y:0.995340 (23.315870) U:0.993293 (21.734528) V:0.992930 (21.505781) All:0.994597 (22.673584)
[out#0/null @ 000001ab66a24440] video:14799KiB audio:269300KiB subtitle:0KiB other streams:0KiB global headers:0KiB muxing overhead: unknown
frame=34442 fps=469 q=-0.0 Lsize=N/A time=00:23:56.26 bitrate=N/A speed=19.6x    
